<svg xmlns="http://www.w3.org/2000/svg" viewBox="0 0 1000 560" width="1000" height="560">
  <!-- Official Logo: gold wolf head + white wordmark -->

  <!-- WOLF HEAD (howling, facing upper-right, flame mane) -->
  <g transform="translate(30, 20)">
    <!-- Outer flame / mane base -->
    <path d="M95 510 C75 490 55 460 50 425 C35 450 15 465 0 475 C15 435 35 400 50 365 C25 380 5 370 -5 355 C20 330 50 315 70 295 C48 298 28 285 18 270 C45 255 78 248 100 232 C80 230 62 215 58 198 C88 188 120 188 145 178 C122 168 105 148 105 130 C132 132 158 145 172 165 C168 140 175 115 190 98 C198 122 196 148 205 165 C212 140 228 120 250 110 C244 138 233 165 242 190 C260 170 285 158 312 155 C300 182 283 207 292 232 C308 212 333 200 360 198 C344 225 324 250 332 278 C350 255 378 244 406 243 C385 272 360 298 368 328 C388 302 418 290 448 290 C424 322 396 352 402 385 C422 358 452 346 482 347 C454 382 424 415 428 452 C448 422 478 410 508 412 C476 450 444 488 448 530 C428 505 400 492 372 490 C382 520 374 552 358 572 C340 545 336 512 320 490 C302 508 280 524 258 530 C268 498 260 462 244 440 C228 460 206 474 182 478 C196 446 200 410 188 386 C170 408 148 424 124 426 C140 392 148 355 136 326 C118 348 96 364 72 362 C90 326 100 288 88 254 C70 274 48 290 24 288 C42 250 58 210 52 170 C36 188 14 200 -4 196 C14 158 38 128 46 88 C30 104 8 114 -8 110 C10 74 35 52 60 30 C48 33 33 33 22 27 C40 6 63 -2 90 0 C82 2 71 3 63 0"
          fill="#F5C518"/>
    <!-- Inner highlights (white cutouts for flame detail) -->
    <path d="M155 420 C148 400 152 378 162 360 C156 378 160 400 170 415Z" fill="white" opacity="0.85"/>
    <path d="M220 390 C214 372 217 350 226 334 C221 351 223 372 232 386Z" fill="white" opacity="0.85"/>
    <path d="M285 410 C279 392 281 370 290 354 C286 371 287 392 296 406Z" fill="white" opacity="0.85"/>
    <path d="M195 320 C188 302 191 280 200 264 C196 281 197 302 206 316Z" fill="white" opacity="0.85"/>
    <path d="M260 295 C254 278 256 257 264 242 C260 259 261 279 269 292Z" fill="white" opacity="0.85"/>
    <!-- Eye -->
    <ellipse cx="285" cy="175" rx="16" ry="11" fill="#1a0a00"/>
    <!-- Snout tip -->
    <path d="M355 115 C368 102 388 98 402 105 C388 99 370 105 360 115Z" fill="#D4A000"/>
  </g>

  <!-- Lightning bolt accent -->
  <text x="465" y="185" font-family="Arial" font-size="52" fill="#F5C518">⚡</text>

  <!-- WORDMARK -->
  <text x="490" y="230" font-family="'Arial Black', 'Impact', sans-serif" font-weight="900"
        font-size="88" fill="white" letter-spacing="2">LIGHTNING</text>
  <text x="490" y="325" font-family="'Arial Black', 'Impact', sans-serif" font-weight="900"
        font-size="88" fill="white" letter-spacing="2">WOLVES</text>

  <!-- Thin rule -->
  <line x1="490" y1="345" x2="975" y2="345" stroke="rgba(255,255,255,0.35)" stroke-width="1.5"/>

  <!-- Sub label -->
  <text x="491" y="378" font-family="Arial, sans-serif" font-weight="300"
        font-size="26" fill="rgba(255,255,255,0.75)" letter-spacing="10">MUSIC  GROUP</text>
</svg>
