<svg xmlns="http://www.w3.org/2000/svg" viewBox="0 0 500 560" width="500" height="560">
  <!-- Lazy Jo — Yellow/Gold Wolf Head, howling upward-right -->

  <!-- Flame mane base (outer) -->
  <path d="M95 540 C78 518 62 488 58 452 C42 475 22 490 5 500 C20 462 40 428 55 394 C30 408 10 398 0 382 C26 358 56 343 76 323 C54 326 34 313 24 298 C50 283 84 276 106 260 C86 258 68 243 64 226 C94 216 126 216 151 206 C128 196 111 176 111 158 C138 160 164 173 178 193 C174 168 181 143 196 126 C204 150 202 176 211 193 C218 168 234 148 256 138 C250 166 239 193 248 218 C266 198 291 186 318 183 C306 210 289 235 298 260 C314 240 339 228 366 226 C350 253 330 278 338 306 C358 283 386 272 414 271 C393 300 368 326 376 356 C396 330 424 318 454 319 C430 350 402 382 408 415 C428 390 456 378 486 379 C458 414 428 447 432 484 C452 458 480 448 506 449"
        fill="#F5C518"/>

  <!-- Inner mane cutouts (white gives depth) -->
  <path d="M160 445 C153 425 157 403 167 386 C162 403 166 425 176 440Z" fill="white" opacity="0.9"/>
  <path d="M225 415 C219 397 222 375 231 359 C226 376 228 397 237 411Z" fill="white" opacity="0.9"/>
  <path d="M290 432 C284 414 286 392 295 376 C291 393 292 414 301 428Z" fill="white" opacity="0.9"/>
  <path d="M198 345 C191 327 194 305 203 289 C199 306 200 327 209 341Z" fill="white" opacity="0.9"/>
  <path d="M263 320 C257 303 259 282 267 267 C263 284 264 304 272 317Z" fill="white" opacity="0.9"/>
  <path d="M165 340 C158 323 160 302 168 287 C164 303 165 323 173 337Z" fill="white" opacity="0.9"/>

  <!-- Face / snout area cutout -->
  <path d="M230 130 C258 108 295 102 328 112 C300 106 265 113 242 130Z" fill="white" opacity="0.8"/>

  <!-- Eye -->
  <ellipse cx="300" cy="195" rx="17" ry="12" fill="#1a0800"/>
  <ellipse cx="297" cy="193" rx="5" ry="4" fill="#F5C518" opacity="0.3"/>

  <!-- Ear tip -->
  <path d="M196 126 C200 90 218 60 240 42 C224 60 210 92 210 118Z" fill="#D4A000"/>
</svg>
